<svg width="27" height="26" viewBox="0 0 27 26" fill="none" xmlns="http://www.w3.org/2000/svg">
<rect x="0.0996094" width="26" height="26" rx="13" fill="#F0EEF0"/>
<g clip-path="url(#clip0_8809_1134)">
<path d="M22.0996 13C22.0996 17.9706 18.0702 22 13.0996 22C11.9723 22 10.8936 21.7921 9.89902 21.4136C8.98715 19.0179 7.08171 17.1125 4.68614 16.2006C4.30753 15.2061 4.09961 14.1273 4.09961 13C4.09961 8.02937 8.12898 4 13.0996 4C18.0702 4 22.0996 8.02937 22.0996 13Z" fill="#08B772"/>
<path d="M21.0181 10.3016L17.0891 14.2306L9.90402 21.4157C7.50406 20.5038 5.59546 18.5952 4.68359 16.1952L15.7976 5.08119C17.2392 3.63964 19.5765 3.63964 21.0181 5.08119C22.4596 6.52273 22.4596 8.86007 21.0181 10.3016Z" fill="#FCB30B"/>
<path d="M21.019 10.3016L17.09 14.2306L9.90494 21.4157C8.92276 21.0424 8.02298 20.5021 7.23993 19.8296C7.2332 19.8218 7.22661 19.814 7.21988 19.8062C6.12441 18.5217 6.21175 16.6071 7.40541 15.4134L16.7681 6.05073C18.044 4.77481 20.0214 4.62842 21.4586 5.611C22.4413 7.04829 22.2949 9.02569 21.019 10.3016ZM20.9752 11.3828C20.781 11.3828 20.6236 11.5402 20.6236 11.7344C20.6236 11.9286 20.781 12.0859 20.9752 12.0859C21.1694 12.0859 21.3267 11.9286 21.3267 11.7344C21.3267 11.5402 21.1694 11.3828 20.9752 11.3828ZM21.6783 11.0312C21.8725 11.0312 22.0299 10.8739 22.0299 10.6797C22.0299 10.4855 21.8725 10.3281 21.6783 10.3281C21.4841 10.3281 21.3267 10.4855 21.3267 10.6797C21.3267 10.8739 21.4841 11.0312 21.6783 11.0312ZM21.7486 13.1406C21.5544 13.1406 21.397 13.298 21.397 13.4922C21.397 13.6864 21.5544 13.8437 21.7486 13.8437C21.9428 13.8437 22.1002 13.6864 22.1002 13.4922C22.1002 13.298 21.9428 13.1406 21.7486 13.1406Z" fill="#FDBF43"/>
<path d="M13.1207 13.2648C13.7179 14.2991 14.0272 15.3291 13.9987 16.0218C13.993 16.163 13.8401 16.2511 13.715 16.1856C13.1009 15.8639 12.3636 15.081 11.7663 14.0467C11.1692 13.0124 10.86 11.9823 10.8884 11.2897C10.8941 11.1485 11.0469 11.0602 11.1721 11.1259C11.7861 11.4476 12.5236 12.2304 13.1207 13.2648ZM8.27185 14.0261C8.14674 13.9605 7.99389 14.0486 7.98813 14.1898C7.9597 14.8825 8.26896 15.9126 8.86607 16.9468C9.46332 17.9812 10.2006 18.7641 10.8148 19.0857C10.9399 19.1514 11.0927 19.0632 11.0985 18.922C11.1269 18.2294 10.8177 17.1993 10.2204 16.165C9.6233 15.1307 8.88585 14.3479 8.27185 14.0261ZM14.0724 8.22562C13.9471 8.15998 13.7944 8.24828 13.7886 8.38945C13.7602 9.08214 14.0695 10.1121 14.6666 11.1465C15.2638 12.1807 16.0011 12.9636 16.6153 13.2854C16.7404 13.3509 16.8931 13.2627 16.899 13.1215C16.9274 12.4289 16.6182 11.3987 16.0209 10.3645C15.4238 9.33016 14.6864 8.54738 14.0724 8.22562ZM18.9212 7.46427C18.3241 6.4299 17.5866 5.64713 16.9726 5.32537C16.8474 5.25986 16.6947 5.34803 16.6889 5.4892C16.6605 6.18189 16.9697 7.21186 17.5668 8.24622C18.1641 9.28044 18.9014 10.0634 19.5155 10.3851C19.6406 10.4506 19.7933 10.3625 19.7993 10.2213C19.8277 9.5286 19.5184 8.49863 18.9212 7.46427Z" fill="#FDA800"/>
<path d="M19.7997 10.2213C19.7938 10.3625 19.6411 10.4506 19.516 10.3851C19.3295 10.2873 19.1317 10.147 18.9298 9.97011C19.0059 9.2527 18.7747 8.17728 18.2565 7.07301C17.9839 6.49184 17.6664 5.97699 17.3394 5.56102C17.8658 5.9579 18.4394 6.62903 18.9216 7.46426C19.5188 8.49863 19.8281 9.52859 19.7997 10.2213ZM8.6123 14.2421C8.94643 14.6624 9.27135 15.1866 9.54971 15.7798C10.0652 16.8787 10.2969 17.9491 10.2241 18.6666C10.4277 18.8454 10.6272 18.9874 10.8152 19.0859C10.9403 19.1514 11.0932 19.0632 11.0989 18.922C11.1273 18.2294 10.8181 17.1994 10.2208 16.165C9.73058 15.3158 9.14583 14.6364 8.6123 14.2421ZM11.4413 11.2908C11.7946 11.7219 12.1399 12.2706 12.4333 12.8962C12.9422 13.9805 13.1744 15.0371 13.1105 15.7543C13.3188 15.939 13.5232 16.0848 13.7155 16.1856C13.8406 16.2511 13.9934 16.163 13.9992 16.0218C14.0276 15.3291 13.7183 14.2991 13.1211 13.2648C12.6089 12.3776 11.9936 11.6757 11.4413 11.2908ZM14.0768 8.22781C14.4978 8.68553 14.919 9.31985 15.2673 10.0623C15.7486 11.088 15.9825 12.089 15.9523 12.8013C16.1808 13.011 16.4055 13.1752 16.6157 13.2854C16.7408 13.3509 16.8935 13.2627 16.8994 13.1215C16.9279 12.4288 16.6186 11.3987 16.0213 10.3645C15.4255 9.33249 14.6901 8.55081 14.0768 8.22781Z" fill="#FC9302"/>
</g>
<defs>
<clipPath id="clip0_8809_1134">
<rect width="18" height="18" fill="white" transform="translate(4.09961 4)"/>
</clipPath>
</defs>
</svg>
