<svg width="136" height="33" viewBox="0 0 136 33" fill="none" xmlns="http://www.w3.org/2000/svg">
<path fill-rule="evenodd" clip-rule="evenodd" d="M15.6088 31.7005C22.3207 31.7005 26.0503 31.7005 28.4867 29.2569C30.9245 26.8132 30.9245 23.071 30.9245 16.3405C30.9245 9.61002 30.9245 5.8692 28.4867 3.42556C26.0503 0.98053 22.3207 0.98053 15.6088 0.98053C8.89834 0.98053 5.16862 0.98053 2.73087 3.42556C0.295898 5.8678 0.295898 9.61147 0.295898 16.3405C0.295898 23.071 0.295898 26.8132 2.73087 29.2569C5.16862 31.6992 8.89834 31.7005 15.6088 31.7005ZM7.82913 14.3493L17.0734 14.3675L17.5968 12.0858L25.4768 12.0593L24.5509 14.3312L17.0804 14.3675L16.5639 16.6491L22.0826 16.6589L21.2709 18.9406L16.039 18.9308L15.5252 21.2097H19.688L18.8053 23.5011H17.2071C16.0543 23.5011 15.2148 22.3603 15.5127 21.2097L7.82774 21.1929V18.9112L16.039 18.928L16.5527 16.6491L7.82774 16.6324L7.82913 14.3493ZM7.82913 9.77761L16.2506 9.79579C17.2029 9.79579 17.9018 10.7188 17.6832 11.6795L17.5955 12.0775L7.82774 12.0607L7.82913 9.77761ZM35.9509 20.9797H46.6133V17.9513H39.3199V16.446H46.3445V13.4354H39.3199V12.0018H46.6133V8.97334H35.9509V20.9797ZM47.3021 18.686C47.3021 20.2271 48.449 21.1589 50.4919 21.1589C52.4451 21.1589 53.5562 20.3525 53.8967 19.0802H54.0759V20.9797H57.2298V15.8367C57.2298 13.31 55.7066 11.7689 52.5527 11.7689C49.4883 11.7689 47.4813 13.31 47.4813 15.7113V15.7471H50.8503V15.6754C50.8503 14.9228 51.1907 14.7077 52.3018 14.7077C53.5024 14.7077 53.8967 14.8511 53.8967 15.765V15.9442L50.2231 16.3026C48.1802 16.4997 47.3021 17.4137 47.3021 18.686ZM51.4954 18.8114C50.9757 18.8114 50.689 18.7577 50.689 18.4709C50.689 18.2738 50.8144 18.1663 51.1191 18.1305L53.8787 17.8079C53.7891 18.6143 53.1261 18.8114 51.4954 18.8114ZM63.0847 21.1589C59.895 21.1589 58.1926 19.9225 58.1926 17.8437V17.7721H61.5615V17.9513C61.5615 18.453 61.8841 18.5068 63.1026 18.5068C64.2674 18.5068 64.4466 18.3813 64.4466 18.0767C64.4466 17.79 64.3033 17.7183 63.461 17.6287L60.8447 17.342C58.981 17.1449 57.9775 16.2668 57.9775 14.7436C57.9775 13.1487 59.2498 11.7689 62.6367 11.7689C65.7727 11.7689 67.4393 12.8978 67.4393 15.1199V15.1916H64.0703V15.0841C64.0703 14.6181 63.8911 14.4031 62.5292 14.4031C61.4361 14.4031 61.2927 14.5465 61.2927 14.8869C61.2927 15.1378 61.4361 15.2633 62.4934 15.3708L64.2854 15.5679C66.9196 15.8546 67.7618 16.7327 67.7618 18.2559C67.7618 19.9404 66.0774 21.1589 63.0847 21.1589ZM68.9293 24.0261H70.56C73.1943 24.0261 74.5741 23.4706 75.5418 21.3381L79.8247 11.9481H76.0615L74.7175 15.4604L74.1261 17.5749H73.8931L73.248 15.4962L71.689 11.9481H67.8541L72.1728 20.8722C72.0295 20.9439 71.8144 20.9797 71.5456 20.9797H68.9293V24.0261ZM83.5599 20.9797H80.1909V8.97334H84.7605L86.9647 13.9551L88.1474 17.0553H88.3803L89.5093 13.9551L91.6059 8.97334H96.1755V20.9797H92.8066V16.0159L92.932 14.0089H92.6991L92.0181 16.0159L90.2261 20.2629H86.1403L84.3483 16.0159L83.6674 14.0089H83.4344L83.5599 16.0159V20.9797ZM96.9846 18.686C96.9846 20.2271 98.1315 21.1589 100.174 21.1589C102.128 21.1589 103.239 20.3525 103.579 19.0802H103.758V20.9797H106.912V15.8367C106.912 13.31 105.389 11.7689 102.235 11.7689C99.1708 11.7689 97.1638 13.31 97.1638 15.7113V15.7471H100.533V15.6754C100.533 14.9228 100.873 14.7077 101.984 14.7077C103.185 14.7077 103.579 14.8511 103.579 15.765V15.9442L99.9056 16.3026C97.8627 16.4997 96.9846 17.4137 96.9846 18.686ZM101.178 18.8114C100.658 18.8114 100.371 18.7577 100.371 18.4709C100.371 18.2738 100.497 18.1663 100.802 18.1305L103.561 17.8079C103.472 18.6143 102.809 18.8114 101.178 18.8114ZM111.28 20.9797H107.911V11.9481H111.065V14.3135H111.244C111.495 12.8261 112.427 11.7689 114.219 11.7689C116.208 11.7689 116.996 13.077 116.996 14.8869V16.6789H113.627V15.6217C113.627 14.869 113.341 14.6002 112.463 14.6002C111.549 14.6002 111.28 14.869 111.28 15.5858V20.9797ZM122.101 20.9797H124.467V17.9513H122.854C122.083 17.9513 121.868 17.7721 121.868 17.0553V14.7077H124.467V11.9481H121.868V10.389H118.499V11.9481H117.173V14.7077H118.499V17.5391C118.499 19.8866 119.843 20.9797 122.101 20.9797Z" fill="#B6349A"/>
</svg>
